<svg xmlns="http://www.w3.org/2000/svg" fill="#ffffff" width="24" height="24" viewBox="0 0 24 24"><defs><style>.a{opacity:0;}.b{fill:#fff;}</style></defs><g transform="translate(8164 8162)"><rect class="a" width="24" height="24" transform="translate(-8164 -8162)"/><path class="b" d="M14.01,18A1.995,1.995,0,1,1,16,20,2,2,0,0,1,14.01,18Zm-10,0A1.995,1.995,0,1,1,6,20,2,2,0,0,1,4.01,18ZM6,15a2,2,0,0,1-1.75-2.97L5.6,9.59,2,2H1A1,1,0,0,1,1,0H3.27L4.21,2h14.8a1,1,0,0,1,.87,1.481L16.3,9.97A1.99,1.99,0,0,1,14.55,11H7.1L6,13H18v2ZM7.53,9h7.02L17.31,4H5.16Z" transform="translate(-8162 -8160)"/></g></svg>