<svg xmlns="http://www.w3.org/2000/svg" xmlns:xlink="http://www.w3.org/1999/xlink" width="32" height="32" viewBox="0 0 32 32"><defs><style>.a,.b{fill:none;}.a{clip-rule:evenodd;}.c{clip-path:url(#a);}.d{clip-path:url(#b);}.e{fill:#ffdc20;}.f{clip-path:url(#c);}.g{clip-path:url(#d);}.h{fill:#fd1d00;}</style><clipPath id="a"><path class="a" d="M60-15A16,16,0,0,0,76-31,16,16,0,0,0,60-47,16,16,0,0,0,44-31,16,16,0,0,0,60-15Z"/></clipPath><clipPath id="b"><path class="b" d="M0,2225H1920V-62H0Z"/></clipPath><clipPath id="c"><path class="a" d="M71.124-33.589a13.317,13.317,0,0,1-.135,5.1,6.417,6.417,0,0,1-4.731,2.365c-2.86,0-5.345-1.112-6.233-4.791a4.821,4.821,0,0,0-3.168.477,3.517,3.517,0,0,0-1.407,4.282,3.5,3.5,0,0,0,2.135,2.384L56.427-20.25a12.146,12.146,0,0,1-4.169-2.673,7.032,7.032,0,0,1,.4-5.457c1.429-2.582,3.592-4.27,7.084-3.239a5.336,5.336,0,0,0,1.183-3.094,3.411,3.411,0,0,0-2.851-3.412,3.349,3.349,0,0,0-3.048.737l-2.341-2.8a12.134,12.134,0,0,1,4.3-2.43,6.448,6.448,0,0,1,4.33,3.092c1.428,2.579,1.748,5.376-.849,8.014a5.2,5.2,0,0,0,1.984,2.632,3.209,3.209,0,0,0,4.256-.87,3.7,3.7,0,0,0,.913-3.12Zm-14.28-1.6s-5.28-1.467-5.353,3.634l-1.709,1.894-2.1-1.241,1.2-1.4.535-.622a5.527,5.527,0,0,1,.569-2.288,3.735,3.735,0,0,1,4.146-1.758A4.113,4.113,0,0,1,56.845-35.186Zm8.073,2.852s3.859-4.038-.338-6.654l-.719-2.491,2.078-1.272.561,1.78.248.793a5.229,5.229,0,0,1,1.616,1.659,4.091,4.091,0,0,1-.615,4.626A4.042,4.042,0,0,1,64.918-32.334ZM64.184-23.5l2.427.6.018,2.512-1.759-.383-.784-.173a4.974,4.974,0,0,1-2.185.63c-.856-.044-2.541-.3-3.532-2.868a4.446,4.446,0,0,1,.122-3.335S59.913-21.022,64.184-23.5Z"/></clipPath><clipPath id="d"><path class="b" d="M46-18H73V-45H46Z"/></clipPath></defs><g transform="translate(9506 8331)"><g class="c" transform="translate(-9550 -8284)"><g class="d"><path class="e" d="M39-52H81v42H39Z"/></g></g><g class="f" transform="translate(-9549.688 -8283.25)"><g class="g"><path class="h" d="M42.688-47.75H76.313v32.5H42.688Z"/></g></g></g></svg>